<svg width="170" height="170" viewBox="0 0 170 170" fill="none" xmlns="http://www.w3.org/2000/svg">
<path d="M68.9027 33.9302C68.7378 33.9302 68.5797 33.9574 68.4216 33.9795V33.9302H50.8487C49.8735 33.9302 48.9382 34.3176 48.2486 35.0072C47.559 35.6968 47.1716 36.632 47.1716 37.6073V37.6158H47.1699V132.379H47.1716L47.1699 132.394C47.1699 134.424 48.8172 136.07 50.847 136.07H68.901C69.8758 136.07 70.8106 135.682 71.4999 134.993C72.1892 134.304 72.5764 133.369 72.5764 132.394L72.5747 132.379H72.5764V37.6158L72.5781 37.6073C72.5781 36.6323 72.1909 35.6973 71.5017 35.0078C70.8125 34.3182 69.8776 33.9306 68.9027 33.9302Z" fill="white"/>
<path d="M122.826 132.379V37.6158L122.828 37.6073C122.828 36.6323 122.441 35.6973 121.752 35.0078C121.062 34.3182 120.128 33.9306 119.153 33.9302C118.988 33.9302 118.83 33.9574 118.672 33.9795V33.9302H101.099C100.123 33.9302 99.1882 34.3176 98.4986 35.0072C97.809 35.6968 97.4216 36.632 97.4216 37.6073V37.6158H97.4199V132.379H97.4216L97.4199 132.394C97.4199 134.424 99.0672 136.07 101.097 136.07H119.148C120.122 136.07 121.057 135.682 121.747 134.993C122.436 134.304 122.823 133.369 122.823 132.394C122.826 132.389 122.825 132.384 122.826 132.379Z" fill="white"/>
</svg>
